<svg width="23" height="22" viewBox="0 0 23 22" fill="none" xmlns="http://www.w3.org/2000/svg">
<path opacity="0.9" d="M7.65121 17.7158C7.65121 17.625 7.55847 17.5341 7.41935 17.5341C7.28024 17.5341 7.1875 17.625 7.1875 17.7158C7.1875 17.8067 7.28024 17.8975 7.41935 17.8521C7.55847 17.8521 7.65121 17.8067 7.65121 17.7158ZM6.21371 17.4887C6.21371 17.5795 6.30645 17.7158 6.44556 17.7158C6.53831 17.7612 6.67742 17.7158 6.72379 17.625C6.72379 17.5341 6.67742 17.4433 6.53831 17.3978C6.39919 17.3524 6.26008 17.3978 6.21371 17.4887ZM8.3004 17.4433C8.16129 17.4433 8.06855 17.5341 8.06855 17.6704C8.06855 17.7612 8.20766 17.8067 8.34677 17.7612C8.48589 17.7158 8.57863 17.6704 8.53226 17.5795C8.53226 17.4887 8.39315 17.3978 8.3004 17.4433ZM11.3145 0C4.91532 0 0 4.81507 0 11.0837C0 16.1259 3.1996 20.4413 7.83669 21.9858C8.43952 22.0766 8.625 21.7132 8.625 21.4407C8.625 21.1227 8.625 19.5782 8.625 18.6243C8.625 18.6243 5.37903 19.3057 4.68347 17.2616C4.68347 17.2616 4.17339 15.9442 3.43145 15.6263C3.43145 15.6263 2.36492 14.8994 3.47782 14.8994C3.47782 14.8994 4.6371 14.9903 5.28629 16.0805C6.30645 17.8521 7.97581 17.3524 8.67137 17.0344C8.76411 16.3076 9.04234 15.808 9.41331 15.49C6.81653 15.2174 4.17339 14.854 4.17339 10.4932C4.17339 9.22131 4.54435 8.63078 5.28629 7.81313C5.14718 7.49515 4.77621 6.3141 5.4254 4.72422C6.35282 4.45166 8.625 5.95069 8.625 5.95069C9.55242 5.67814 10.5262 5.58729 11.5 5.58729C12.5202 5.58729 13.494 5.67814 14.4214 5.95069C14.4214 5.95069 16.6472 4.40624 17.621 4.72422C18.2702 6.3141 17.8528 7.49515 17.7601 7.81313C18.502 8.63078 18.9657 9.22131 18.9657 10.4932C18.9657 14.854 16.2298 15.2174 13.6331 15.49C14.0504 15.8534 14.4214 16.5348 14.4214 17.625C14.4214 19.124 14.375 21.0318 14.375 21.3952C14.375 21.7132 14.6069 22.0766 15.2097 21.9403C19.8468 20.4413 23 16.1259 23 11.0837C23 4.81507 17.7601 0 11.3145 0ZM4.49798 15.6717C4.40524 15.7171 4.45161 15.8534 4.49798 15.9442C4.59073 15.9897 4.68347 16.0351 4.77621 15.9897C4.82258 15.9442 4.82258 15.808 4.72984 15.7171C4.6371 15.6717 4.54435 15.6263 4.49798 15.6717ZM3.9879 15.3083C3.94153 15.3991 3.9879 15.4446 4.08065 15.49C4.17339 15.5354 4.26613 15.5354 4.3125 15.4446C4.3125 15.3991 4.26613 15.3537 4.17339 15.3083C4.08065 15.2628 4.03427 15.2628 3.9879 15.3083ZM5.47177 16.9436C5.4254 16.989 5.4254 17.1253 5.56452 17.2161C5.65726 17.307 5.79637 17.3524 5.84274 17.2616C5.88911 17.2161 5.88911 17.0799 5.79637 16.989C5.70363 16.8982 5.56452 16.8527 5.47177 16.9436ZM4.96169 16.2622C4.86895 16.3076 4.86895 16.4439 4.96169 16.5348C5.05444 16.6256 5.14718 16.671 5.23992 16.6256C5.28629 16.5802 5.28629 16.4439 5.23992 16.3531C5.14718 16.2622 5.05444 16.2168 4.96169 16.2622Z" fill="white"/>
</svg>
