<svg width="24" height="24" viewBox="0 0 24 24" fill="none" xmlns="http://www.w3.org/2000/svg">
<path d="M5.35714 24V7.94631H0.375V24H5.35714ZM2.83929 5.79866C4.44643 5.79866 5.73214 4.45638 5.73214 2.84564C5.73214 1.28859 4.44643 0 2.83929 0C1.28571 0 0 1.28859 0 2.84564C0 4.45638 1.28571 5.79866 2.83929 5.79866ZM23.9464 24H24V15.1946C24 10.8993 23.0357 7.57047 18 7.57047C15.5893 7.57047 13.9821 8.91275 13.2857 10.1477H13.2321V7.94631H8.46429V24H13.4464V16.0537C13.4464 13.9597 13.8214 11.9732 16.3929 11.9732C18.9643 11.9732 19.0179 14.3356 19.0179 16.2148V24H23.9464Z" fill="white" fill-opacity="0.95"/>
</svg>
